<svg width="297" height="90" viewBox="25 35 240 20" fill="none" xmlns="http://www.w3.org/2000/svg">
<g filter="url(#filter0_d_321_315)">
<path d="M111.101 37.8029C111.101 37.9578 111.073 38.1017 111.018 38.2345L105.705 53.1261C105.628 53.3475 105.473 53.5411 105.24 53.7072C105.008 53.8732 104.77 53.9562 104.526 53.9562C104.283 53.9562 104.05 53.8732 103.829 53.7072C103.608 53.5411 103.453 53.3475 103.364 53.1261L99.2305 41.5382L95.0801 53.2423C95.0026 53.4747 94.8477 53.6684 94.6152 53.8234C94.3828 53.9894 94.1449 54.0724 93.9014 54.0724C93.6579 54.0724 93.4255 53.9894 93.2041 53.8234C92.9827 53.6573 92.8278 53.4637 92.7393 53.2423L87.4268 38.3507C87.3714 38.2179 87.3438 38.074 87.3438 37.9191C87.3438 37.576 87.4655 37.2827 87.709 37.0392C87.9525 36.7957 88.2458 36.674 88.5889 36.674C88.8434 36.674 89.0814 36.757 89.3027 36.923C89.5352 37.0779 89.6901 37.2716 89.7676 37.504L93.9014 49.1085L98.0518 37.4044C98.1403 37.172 98.2952 36.9783 98.5166 36.8234C98.738 36.6684 98.9704 36.5909 99.2139 36.5909C99.4574 36.5909 99.6953 36.674 99.9277 36.84C100.16 36.9949 100.315 37.1831 100.393 37.4044L104.526 49.0089L108.677 37.4044C108.765 37.172 108.92 36.9728 109.142 36.8068C109.374 36.6407 109.612 36.5577 109.855 36.5577C110.199 36.5577 110.492 36.685 110.735 36.9396C110.979 37.1831 111.101 37.4708 111.101 37.8029ZM121.344 53.9396C119.739 53.9396 118.284 53.5411 116.978 52.7443C115.683 51.9474 114.653 50.8849 113.89 49.5568C113.126 48.2176 112.744 46.7511 112.744 45.1573C112.744 43.6411 113.104 42.241 113.823 40.9572C114.554 39.6622 115.539 38.6219 116.778 37.8361C118.018 37.0503 119.401 36.6573 120.929 36.6573C122.334 36.6573 123.624 37.006 124.797 37.7032C125.981 38.4005 126.927 39.3413 127.636 40.5255C128.355 41.6987 128.715 43.0047 128.715 44.4435C128.715 44.9526 128.621 45.3898 128.433 45.755C128.256 46.1202 127.924 46.3029 127.437 46.3029H115.351C115.528 47.2215 115.887 48.0737 116.43 48.8595C116.983 49.6342 117.675 50.2596 118.505 50.7355C119.346 51.2114 120.281 51.4493 121.311 51.4493C122.185 51.4493 123.043 51.2557 123.884 50.8683C124.725 50.4809 125.417 49.9497 125.959 49.2745C126.202 48.9536 126.529 48.7931 126.938 48.7931C127.282 48.7931 127.575 48.9148 127.818 49.1583C128.062 49.4018 128.184 49.6951 128.184 50.0382C128.184 50.337 128.084 50.6082 127.885 50.8517C127.088 51.8256 126.108 52.5838 124.946 53.1261C123.795 53.6684 122.594 53.9396 121.344 53.9396ZM126.175 43.8458C126.075 42.9825 125.782 42.1967 125.295 41.4884C124.808 40.769 124.188 40.199 123.436 39.7784C122.683 39.3579 121.853 39.1476 120.945 39.1476C120.005 39.1476 119.147 39.3634 118.372 39.795C117.597 40.2267 116.95 40.7967 116.43 41.505C115.921 42.2133 115.572 42.9936 115.384 43.8458H126.175ZM140.336 53.9396C139.174 53.9396 138.128 53.6297 137.198 53.0099C136.269 52.3901 135.488 51.7592 134.857 51.1173L134.774 52.7111C134.774 53.0542 134.664 53.3475 134.442 53.5909C134.232 53.8344 133.955 53.9562 133.612 53.9562C133.269 53.9562 132.976 53.8344 132.732 53.5909C132.489 53.3475 132.367 53.0542 132.367 52.7111V31.8097C132.367 31.4666 132.489 31.1733 132.732 30.9298C132.976 30.6863 133.269 30.5646 133.612 30.5646C133.955 30.5646 134.249 30.6863 134.492 30.9298C134.736 31.1733 134.857 31.4666 134.857 31.8097V39.3136C135.533 38.6053 136.318 37.9799 137.215 37.4376C138.111 36.8953 139.102 36.6241 140.187 36.6241C141.338 36.6241 142.389 36.8676 143.341 37.3546C144.304 37.8416 145.139 38.5001 145.848 39.3302C146.556 40.1492 147.104 41.0844 147.491 42.1359C147.879 43.1873 148.072 44.2775 148.072 45.4064C148.072 46.9005 147.74 48.3006 147.076 49.6066C146.412 50.9015 145.499 51.9474 144.337 52.7443C143.175 53.5411 141.841 53.9396 140.336 53.9396ZM140.286 51.4493C141.338 51.4493 142.256 51.1726 143.042 50.6193C143.839 50.0548 144.453 49.3188 144.885 48.4113C145.327 47.4926 145.549 46.5076 145.549 45.4562C145.549 44.3937 145.327 43.381 144.885 42.4181C144.442 41.4441 143.822 40.6528 143.025 40.0441C142.229 39.4243 141.293 39.1144 140.22 39.1144C139.113 39.1144 138.156 39.4077 137.348 39.9943C136.551 40.5698 135.937 41.3169 135.505 42.2355C135.084 43.1541 134.874 44.1336 134.874 45.174C134.874 46.2143 135.09 47.2159 135.521 48.1788C135.953 49.1417 136.573 49.9275 137.381 50.5363C138.2 51.145 139.168 51.4493 140.286 51.4493ZM161.486 34.0675C161.01 34.0675 160.59 33.896 160.225 33.5529C159.87 33.2098 159.693 32.7947 159.693 32.3077C159.693 31.8208 159.87 31.4057 160.225 31.0626C160.59 30.7195 161.01 30.548 161.486 30.548C161.973 30.548 162.394 30.7195 162.748 31.0626C163.102 31.4057 163.279 31.8208 163.279 32.3077C163.279 32.7947 163.102 33.2098 162.748 33.5529C162.394 33.896 161.973 34.0675 161.486 34.0675ZM160.274 37.67C160.274 37.3823 160.407 37.1333 160.673 36.923C160.938 36.7016 161.188 36.5909 161.42 36.5909C161.807 36.5909 162.128 36.7072 162.383 36.9396C162.637 37.172 162.765 37.4764 162.765 37.8527L162.798 52.7443C162.798 53.0874 162.676 53.3807 162.433 53.6241C162.189 53.8676 161.896 53.9894 161.553 53.9894C161.21 53.9894 160.916 53.8621 160.673 53.6075C160.429 53.3641 160.308 53.0708 160.308 52.7277L160.274 37.67ZM179.914 40.1437C180.279 39.5571 180.728 38.9871 181.259 38.4337C181.79 37.8803 182.421 37.4266 183.151 37.0724C183.882 36.7182 184.717 36.5411 185.658 36.5411C187.064 36.5411 188.182 36.8787 189.012 37.5538C189.842 38.2179 190.439 39.131 190.805 40.2931C191.181 41.4552 191.369 42.7723 191.369 44.2443L191.386 52.6115C191.386 52.9545 191.264 53.2478 191.021 53.4913C190.777 53.7348 190.484 53.8566 190.141 53.8566C189.798 53.8566 189.504 53.7348 189.261 53.4913C189.017 53.2368 188.896 52.9379 188.896 52.5948L188.879 44.2443C188.879 43.3367 188.79 42.49 188.613 41.7042C188.447 40.9184 188.132 40.282 187.667 39.795C187.202 39.3081 186.521 39.0646 185.625 39.0646C184.463 39.0646 183.511 39.3136 182.77 39.8116C182.028 40.2986 181.486 40.9406 181.143 41.7374C180.799 42.5232 180.622 43.3588 180.611 44.2443L180.578 52.6613C180.578 53.0044 180.456 53.2976 180.213 53.5411C179.969 53.7846 179.676 53.9064 179.333 53.9064C178.99 53.9064 178.697 53.7846 178.453 53.5411C178.21 53.2866 178.088 52.9878 178.088 52.6447L178.071 44.2443C178.071 43.3146 177.983 42.4568 177.806 41.671C177.629 40.8852 177.297 40.2544 176.81 39.7784C176.334 39.3025 175.642 39.0646 174.734 39.0646C173.152 39.0646 171.929 39.5516 171.065 40.5255C170.213 41.4884 169.787 42.728 169.787 44.2443L169.771 52.6945C169.771 53.0376 169.649 53.3309 169.405 53.5743C169.162 53.8178 168.868 53.9396 168.525 53.9396C168.182 53.9396 167.889 53.8178 167.646 53.5743C167.402 53.3198 167.28 53.021 167.28 52.6779L167.264 37.7365C167.286 37.3934 167.413 37.1111 167.646 36.8898C167.878 36.6573 168.166 36.5411 168.509 36.5411C168.863 36.5411 169.145 36.6573 169.355 36.8898C169.577 37.1111 169.682 37.3989 169.671 37.7531L169.754 39.712C170.031 39.2361 170.418 38.7547 170.916 38.2677C171.425 37.7807 172.001 37.3712 172.643 37.0392C173.296 36.7072 173.976 36.5411 174.685 36.5411C176.024 36.5411 177.125 36.9064 177.988 37.6368C178.863 38.3562 179.505 39.1919 179.914 40.1437ZM203.355 36.6241C204.861 36.6241 206.194 37.0226 207.356 37.8195C208.519 38.6163 209.432 39.6622 210.096 40.9572C210.76 42.2521 211.092 43.6521 211.092 45.1573C211.092 46.2863 210.898 47.3764 210.511 48.4279C210.123 49.4793 209.576 50.42 208.867 51.2501C208.159 52.0691 207.323 52.7221 206.36 53.2091C205.409 53.6961 204.357 53.9396 203.206 53.9396C202.121 53.9396 201.131 53.6684 200.234 53.1261C199.338 52.5838 198.552 51.9585 197.877 51.2501V58.754C197.877 59.0971 197.755 59.3904 197.512 59.6339C197.268 59.8774 196.975 59.9991 196.632 59.9991C196.289 59.9991 195.995 59.8774 195.752 59.6339C195.508 59.3904 195.387 59.0971 195.387 58.754V37.8527C195.387 37.5096 195.508 37.2163 195.752 36.9728C195.995 36.7293 196.289 36.6075 196.632 36.6075C196.975 36.6075 197.252 36.7293 197.462 36.9728C197.683 37.2163 197.794 37.5096 197.794 37.8527L197.877 39.4464C198.508 38.8045 199.288 38.1736 200.218 37.5538C201.147 36.934 202.193 36.6241 203.355 36.6241ZM203.306 39.1144C202.188 39.1144 201.219 39.4187 200.4 40.0275C199.592 40.6362 198.973 41.422 198.541 42.3849C198.109 43.3367 197.894 44.3383 197.894 45.3898C197.894 46.4191 198.104 47.3986 198.524 48.3282C198.956 49.2469 199.57 49.9995 200.367 50.5861C201.175 51.1616 202.132 51.4493 203.239 51.4493C204.313 51.4493 205.248 51.145 206.045 50.5363C206.842 49.9165 207.462 49.1251 207.904 48.1622C208.347 47.1883 208.568 46.17 208.568 45.1075C208.568 44.0561 208.347 43.0766 207.904 42.1691C207.473 41.2504 206.858 40.5144 206.062 39.9611C205.276 39.3966 204.357 39.1144 203.306 39.1144ZM222.53 36.5909C223.715 36.5909 224.777 36.934 225.718 37.6202C226.67 38.3064 227.5 39.0314 228.208 39.795L228.357 37.7032C228.357 37.3823 228.446 37.1111 228.623 36.8898C228.8 36.6573 229.049 36.5411 229.37 36.5411C229.691 36.5411 229.962 36.6573 230.184 36.8898C230.416 37.1111 230.532 37.3823 230.532 37.7032V52.7111C230.532 53.032 230.416 53.3087 230.184 53.5411C229.962 53.7625 229.691 53.8732 229.37 53.8732C229.049 53.8732 228.772 53.7625 228.54 53.5411C228.319 53.3087 228.208 53.032 228.208 52.7111V50.8185C227.478 51.6154 226.609 52.3348 225.602 52.9767C224.605 53.6186 223.554 53.9396 222.447 53.9396C221.307 53.9396 220.25 53.7072 219.276 53.2423C218.302 52.7664 217.45 52.1245 216.72 51.3165C215.989 50.5086 215.419 49.59 215.01 48.5607C214.611 47.5203 214.412 46.4301 214.412 45.2902C214.412 44.1613 214.611 43.0766 215.01 42.0363C215.419 40.9848 215.989 40.0551 216.72 39.2472C217.461 38.4282 218.325 37.7807 219.31 37.3048C220.295 36.8289 221.368 36.5909 222.53 36.5909ZM228.291 45.1906C228.291 44.117 228.031 43.1209 227.511 42.2023C227.002 41.2726 226.31 40.52 225.436 39.9445C224.572 39.3689 223.609 39.0812 222.547 39.0812C221.473 39.0812 220.51 39.3745 219.658 39.9611C218.806 40.5476 218.131 41.3169 217.633 42.2687C217.146 43.2094 216.902 44.2166 216.902 45.2902C216.902 46.3527 217.146 47.3543 217.633 48.295C218.12 49.2358 218.778 49.9995 219.608 50.5861C220.45 51.1616 221.396 51.4493 222.447 51.4493C223.51 51.4493 224.484 51.156 225.369 50.5695C226.255 49.9718 226.963 49.1971 227.494 48.2452C228.025 47.2823 228.291 46.2641 228.291 45.1906ZM234.201 45.257C234.201 43.7185 234.566 42.3019 235.297 41.007C236.027 39.701 237.012 38.6495 238.252 37.8527C239.492 37.0558 240.875 36.6573 242.402 36.6573C243.531 36.6573 244.561 36.8676 245.49 37.2882C246.42 37.7088 247.222 38.2622 247.897 38.9484C248.573 39.6346 249.093 40.3872 249.458 41.2062C249.547 41.3833 249.591 41.5603 249.591 41.7374C249.591 42.0805 249.469 42.3738 249.226 42.6173C248.982 42.8497 248.689 42.9659 248.346 42.9659C248.124 42.9659 247.903 42.8995 247.682 42.7667C247.46 42.6228 247.305 42.4458 247.217 42.2355C246.84 41.4054 246.232 40.6805 245.391 40.0607C244.549 39.4409 243.553 39.131 242.402 39.131C241.329 39.131 240.36 39.4187 239.497 39.9943C238.634 40.5587 237.948 41.3113 237.438 42.2521C236.929 43.1818 236.675 44.1889 236.675 45.2736C236.675 46.3582 236.924 47.3709 237.422 48.3116C237.931 49.2413 238.617 49.9939 239.48 50.5695C240.355 51.1339 241.329 51.4161 242.402 51.4161C243.553 51.4161 244.549 51.1118 245.391 50.5031C246.243 49.8833 246.857 49.1583 247.233 48.3282C247.322 48.118 247.477 47.9409 247.698 47.797C247.92 47.6531 248.141 47.5812 248.362 47.5812C248.705 47.5812 248.999 47.7029 249.242 47.9464C249.486 48.1899 249.607 48.4832 249.607 48.8263C249.607 49.0144 249.569 49.186 249.491 49.3409C249.126 50.1489 248.6 50.9015 247.914 51.5988C247.239 52.285 246.431 52.8383 245.49 53.2589C244.561 53.6795 243.531 53.8898 242.402 53.8898C240.864 53.8898 239.475 53.4913 238.235 52.6945C236.996 51.8976 236.011 50.8462 235.28 49.5402C234.561 48.2231 234.201 46.7954 234.201 45.257ZM255.833 33.1212C255.833 32.7781 255.955 32.4848 256.198 32.2413C256.442 31.9978 256.735 31.8761 257.078 31.8761C257.421 31.8761 257.715 31.9978 257.958 32.2413C258.201 32.4848 258.323 32.7781 258.323 33.1212L258.307 36.84L261.544 36.8566C261.865 36.8566 262.136 36.9728 262.357 37.2052C262.59 37.4266 262.706 37.6977 262.706 38.0187C262.706 38.3396 262.59 38.6163 262.357 38.8488C262.136 39.0701 261.865 39.1808 261.544 39.1808L258.307 39.1642L258.29 49.5236C258.29 50.1101 258.379 50.5861 258.556 50.9513C258.733 51.3055 259.092 51.4825 259.635 51.4825C260.122 51.4825 260.52 51.394 260.83 51.2169C261.151 51.0288 261.516 50.9347 261.926 50.9347C262.269 50.9347 262.562 51.0564 262.806 51.2999C263.049 51.5434 263.171 51.8367 263.171 52.1798C263.171 52.6447 262.972 53.0099 262.573 53.2755C262.175 53.5411 261.704 53.7238 261.162 53.8234C260.631 53.934 260.155 53.9894 259.734 53.9894C258.428 53.9894 257.443 53.5743 256.779 52.7443C256.126 51.9031 255.8 50.8185 255.8 49.4904L255.816 39.1808H253.26C252.939 39.1808 252.662 39.0701 252.43 38.8488C252.208 38.6163 252.098 38.3396 252.098 38.0187C252.098 37.6977 252.208 37.4266 252.43 37.2052C252.662 36.9728 252.939 36.8566 253.26 36.8566H255.816L255.833 33.1212Z" fill="#8555EF"/>
<path d="M52.5008 26.9972V58.7018M37.0352 42.4628H68.482" stroke="white" stroke-width="1.73322"/>
<path d="M41.3965 53.952C44.9836 52.0149 54.5683 49.3031 64.2104 53.952" stroke="white" stroke-width="1.73322"/>
<path d="M68.8547 42.2351C68.8547 51.0218 61.7317 58.1449 52.9449 58.1449C44.1582 58.1449 37.0352 51.0218 37.0352 42.2351" stroke="#4B2E83" stroke-width="1.73322"/>
<path d="M43.4997 42.5919C43.5001 43.4439 42.9389 40.5793 44.5918 36.9583H48.0752V32.8716" stroke="#4B2E83" stroke-width="1.73322"/>
<path d="M61.7776 42.9161C61.7773 43.7681 62.3385 40.9035 60.6856 37.2825H57.2022V32.7982" stroke="#4B2E83" stroke-width="1.73322"/>
<path d="M52.5008 26.9972V58.7018M37.0352 42.4628H68.482" stroke="#4B2E83" stroke-width="1.73322"/>
<path d="M41.3965 53.952C44.9836 52.0149 54.5683 49.3031 64.2104 53.952" stroke="#4B2E83" stroke-width="1.73322"/>
<path d="M51.4492 58.1453C48.7448 56.428 43.351 50.8642 43.4106 42.3465" stroke="#4B2E83" stroke-width="1.73322"/>
<path d="M53.8594 58.1453C56.5638 56.428 61.9576 50.8642 61.8979 42.3465" stroke="#4B2E83" stroke-width="1.73322"/>
<path d="M72.3853 42.5818C72.3853 53.4578 63.5686 62.2745 52.6927 62.2745C41.8167 62.2745 33 53.4578 33 42.5818" stroke="#8759EF" stroke-width="1.73322" stroke-linecap="round"/>
<path d="M37.1274 43.6264C36.9399 41.9056 36.718 38.2105 38.7715 35.2659" stroke="#4B2E83" stroke-width="1.73322"/>
<path d="M68.7378 43.3971C68.9254 41.6763 69.1472 37.9813 67.0938 35.0366" stroke="#4B2E83" stroke-width="1.73322"/>
<circle cx="52.4522" cy="26.3037" r="1.43712" stroke="#4B2E83" stroke-width="1.73322"/>
<circle cx="48.044" cy="30.9113" r="1.43712" stroke="#4B2E83" stroke-width="1.73322"/>
<circle cx="66.5498" cy="33.8882" r="1.43712" stroke="#4B2E83" stroke-width="1.73322"/>
<circle cx="39.0928" cy="34.3659" r="1.43712" stroke="#4B2E83" stroke-width="1.73322"/>
<circle cx="57.0244" cy="30.9113" r="1.43712" stroke="#4B2E83" stroke-width="1.73322"/>
</g>
<defs>
<filter id="filter0_d_321_315" x="0.132812" y="-4" width="296.381" height="105.608" filterUnits="userSpaceOnUse" color-interpolation-filters="sRGB">
<feFlood flood-opacity="0" result="BackgroundImageFix"/>
<feColorMatrix in="SourceAlpha" type="matrix" values="0 0 0 0 0 0 0 0 0 0 0 0 0 0 0 0 0 0 127 0" result="hardAlpha"/>
<feOffset dy="4"/>
<feGaussianBlur stdDeviation="16"/>
<feComposite in2="hardAlpha" operator="out"/>
<feColorMatrix type="matrix" values="0 0 0 0 0 0 0 0 0 0 0 0 0 0 0 0 0 0 0.15 0"/>
<feBlend mode="normal" in2="BackgroundImageFix" result="effect1_dropShadow_321_315"/>
<feBlend mode="normal" in="SourceGraphic" in2="effect1_dropShadow_321_315" result="shape"/>
</filter>
</defs>
</svg>
